<svg width="77" height="80" viewBox="0 0 77 80" fill="none" xmlns="http://www.w3.org/2000/svg">
<rect width="62" height="60" rx="15" fill="url(#paint0_linear_4_10)"/>
<path d="M11.368 22.2H19.648C21.52 22.2 23.168 22.544 24.592 23.232C26.032 23.904 27.144 24.872 27.928 26.136C28.728 27.4 29.128 28.888 29.128 30.6C29.128 32.312 28.728 33.8 27.928 35.064C27.144 36.328 26.032 37.304 24.592 37.992C23.168 38.664 21.52 39 19.648 39H11.368V22.2ZM19.408 34.584C20.624 34.584 21.592 34.24 22.312 33.552C23.048 32.848 23.416 31.864 23.416 30.6C23.416 29.336 23.048 28.36 22.312 27.672C21.592 26.968 20.624 26.616 19.408 26.616H17.032V34.584H19.408ZM31.1961 22.2H39.4761C41.3481 22.2 42.9961 22.544 44.4201 23.232C45.8601 23.904 46.9721 24.872 47.7561 26.136C48.5561 27.4 48.9561 28.888 48.9561 30.6C48.9561 32.312 48.5561 33.8 47.7561 35.064C46.9721 36.328 45.8601 37.304 44.4201 37.992C42.9961 38.664 41.3481 39 39.4761 39H31.1961V22.2ZM39.2361 34.584C40.4521 34.584 41.4201 34.24 42.1401 33.552C42.8761 32.848 43.2441 31.864 43.2441 30.6C43.2441 29.336 42.8761 28.36 42.1401 27.672C41.4201 26.968 40.4521 26.616 39.2361 26.616H36.8601V34.584H39.2361ZM59.1123 22.2C60.6643 22.2 62.0163 22.456 63.1683 22.968C64.3203 23.48 65.2083 24.216 65.8323 25.176C66.4563 26.136 66.7683 27.256 66.7683 28.536C66.7683 29.816 66.4563 30.936 65.8323 31.896C65.2083 32.856 64.3203 33.592 63.1683 34.104C62.0163 34.616 60.6643 34.872 59.1123 34.872H56.6883V39H51.0243V22.2H59.1123ZM58.7523 30.504C59.5203 30.504 60.0963 30.336 60.4803 30C60.8643 29.648 61.0563 29.16 61.0563 28.536C61.0563 27.912 60.8643 27.432 60.4803 27.096C60.0963 26.744 59.5203 26.568 58.7523 26.568H56.6883V30.504H58.7523Z" fill="black"/>
<defs>
<linearGradient id="paint0_linear_4_10" x1="54" y1="-9.0112e-07" x2="10" y2="58" gradientUnits="userSpaceOnUse">
<stop stop-color="#F4620F"/>
<stop offset="1" stop-color="#C44700"/>
</linearGradient>
</defs>
</svg>
